<?xml version="1.0" encoding="UTF-8" standalone="no"?><!DOCTYPE svg PUBLIC "-//W3C//DTD SVG 1.1//EN" "http://www.w3.org/Graphics/SVG/1.1/DTD/svg11.dtd"><svg width="100%" height="100%" viewBox="0 0 2994 1508" version="1.1" xmlns="http://www.w3.org/2000/svg" xmlns:xlink="http://www.w3.org/1999/xlink" xml:space="preserve" xmlns:serif="http://www.serif.com/" style="fill-rule:evenodd;clip-rule:evenodd;stroke-linejoin:round;stroke-miterlimit:2;"><rect id="Artboard4" x="-4546.99" y="-2492.4" width="8726.3" height="7127.13" style="fill:none;"/><g><g><path d="M506.209,684.765c6.029,8.309 13.175,15.972 21.326,22.887l3.741,2.861l-297.371,375.829l-112.163,-115.551l384.467,-286.026Z" style="fill:#9d712b;"/><path d="M537.651,715.39c10.042,7.064 20.77,12.607 31.933,16.532l-163.712,450.325l-142.869,-74.304l274.648,-392.553Z" style="fill:#9d712b;"/><path d="M753.914,591.569l477.653,-38.343c-16.037,52.523 -18.659,106.141 -8.177,160.829l-471.377,-86.604l1.534,-9.663c0.27,-4.406 0.541,-8.812 0.812,-13.219l-0.445,-13Z" style="fill:#d7a55d;"/><path d="M720.587,512.462l356.862,-309.501c13.176,49.379 47.002,99.946 88.089,134.768l-424.91,205.041c-5.147,-10.832 -11.8,-21.073 -20.041,-30.308Z" style="fill:#d7a55d;"/><path d="M587.083,468.252c-11.678,2.495 -23.056,6.531 -33.802,12.103l-220.404,-425.599l151.441,-54.756l102.765,468.252Z" style="fill:#9d712b;"/><path d="M486.212,646.387c3.702,11.324 8.929,22.217 15.713,32.318l-399.302,264.886l-70.743,-144.666l454.332,-152.538Z" style="fill:#9d712b;"/><path d="M479.035,599.082c-0.32,12.021 0.932,24.051 3.853,35.726l-465.938,112.224l-16.95,-160.141l479.035,12.191Z" style="fill:#9d712b;"/><path d="M485.197,561.378c-1.121,4.311 -2.242,8.623 -3.363,12.935l-1.514,9.535l-474.776,-65.244l42.559,-155.31l441.593,185.851l-4.499,12.233Z" style="fill:#9d712b;"/><path d="M523.398,501.369c-4.177,3.7 -8.089,7.772 -11.788,12.132c-4.185,4.933 -7.963,10.077 -11.201,15.477l-404.935,-256.368l103.164,-123.652l324.76,352.411Z" style="fill:#9d712b;"/></g></g><g><path d="M1185.88,907.998c-3.373,202.934 -452.609,155.791 -452.609,155.791l-0,212.321l-58.765,-0c0,-0 -2.571,-507.551 4.475,-519.543c8.063,-13.721 510.527,-66.758 506.899,151.431Zm-56.537,-0c-4.692,-148.09 -395.329,-109.489 -395.329,-109.489l-0.743,212.453c-0,-0 400.592,39.697 396.072,-102.964Z" style="fill:#648124;fill-rule:nonzero;"/><path d="M2521.02,814.339c-10.881,19.759 -0.075,458.491 -0.075,458.491l-58.962,0c0,0 9.598,-423.074 -0.075,-458.491c-4.977,-18.226 -268.719,-3.19 -268.719,-3.19l0,-55.246l596.55,-0l0,55.246c0,-0 -257.837,-16.569 -268.719,3.19Z" style="fill:#648124;fill-rule:nonzero;"/><path d="M1240.37,1272.83l-0,-512.248l53.132,-0l-0,468.629c117.905,-14.455 246.744,-14.75 367.776,-0l0,43.619l-420.908,0Z" style="fill:#648124;fill-rule:nonzero;"/><path d="M2238.01,1272.83l-70.462,-135.332c-117.028,-11.903 -200.302,-11.685 -315.186,0l-70.462,135.332l-67.401,0l268.054,-512.248l54.804,-0l268.054,512.248l-67.401,0Zm-227.869,-460.444l-141.567,275.918l279.497,-0l-137.93,-275.918Z" style="fill:#648124;fill-rule:nonzero;"/></g><g transform="matrix(3.65779,0,0,4.61586,-17062.3,-9279.7)"><text x="5128.19px" y="2336.59px" style="font-family:'ArialMT', 'Arial', sans-serif;font-size:56.771px;fill:#d7a55d;stroke:#d7a55d;stroke-width:1px;">.</text><text x="5146.81px" y="2336.59px" style="font-family:'Salaryman';font-size:56.771px;fill:#d7a55d;stroke:#d7a55d;stroke-width:1px;">k<tspan x="5201.99px 5213.28px 5266.99px 5321.15px 5376.33px 5431.97px " y="2336.59px 2336.59px 2336.59px 2336.59px 2336.59px 2336.59px ">itchen</tspan></text></g></svg>