<?xml version="1.0" encoding="UTF-8" standalone="no"?><!DOCTYPE svg PUBLIC "-//W3C//DTD SVG 1.1//EN" "http://www.w3.org/Graphics/SVG/1.1/DTD/svg11.dtd"><svg width="100%" height="100%" viewBox="0 0 2552 1181" version="1.1" xmlns="http://www.w3.org/2000/svg" xmlns:xlink="http://www.w3.org/1999/xlink" xml:space="preserve" xmlns:serif="http://www.serif.com/" style="fill-rule:evenodd;clip-rule:evenodd;stroke-linejoin:round;stroke-miterlimit:2;"><g><g><path d="M458.299,619.956c5.459,7.523 11.929,14.46 19.308,20.721l3.386,2.59l-269.226,340.259l-101.547,-104.615l348.079,-258.955Z" style="fill:#589d2b;"/><path d="M486.765,647.683c9.092,6.394 18.805,11.413 28.911,14.966l-148.218,407.705l-129.347,-67.272l248.654,-355.399Z" style="fill:#589d2b;"/><path d="M682.56,535.58l432.446,-34.713c-14.519,47.552 -16.893,96.095 -7.403,145.606l-426.764,-78.407l1.389,-8.748c0.245,-3.989 0.49,-7.979 0.735,-11.968l-0.403,-11.77Z" style="fill:#b4953d;"/><path d="M652.388,463.96l323.086,-280.208c11.929,44.705 42.554,90.486 79.753,122.013l-384.695,185.635c-4.66,-9.807 -10.684,-19.078 -18.144,-27.44Z" style="fill:#b4953d;"/><path d="M531.518,423.935c-10.572,2.258 -20.873,5.913 -30.602,10.957l-199.544,-385.319l137.108,-49.573l93.038,423.935Z" style="fill:#589d2b;"/><path d="M440.195,585.21c3.351,10.252 8.083,20.114 14.226,29.259l-361.511,239.816l-64.047,-130.974l411.332,-138.101Z" style="fill:#589d2b;"/><path d="M433.697,542.383c-0.29,10.882 0.844,21.774 3.489,32.344l-421.84,101.602l-15.346,-144.984l433.697,11.038Z" style="fill:#589d2b;"/><path d="M439.276,508.246c-1.015,3.904 -2.03,7.808 -3.045,11.712l-1.371,8.632l-429.841,-59.069l38.532,-140.611l399.798,168.262l-4.073,11.074Z" style="fill:#589d2b;"/><path d="M473.861,453.917c-3.781,3.35 -7.323,7.037 -10.672,10.984c-3.789,4.466 -7.209,9.123 -10.141,14.012l-366.61,-232.104l93.4,-111.949l294.023,319.057Z" style="fill:#589d2b;"/><path d="M558.193,545.7l0.029,-0.082l0.086,-0.064c-0,-0 -0.115,0.146 -0.115,0.146Z" style="fill:#bfbfbf;"/><path d="M558.308,545.554c-0,-0 -0,-0 -0,-0Z" style="fill:#bfbfbf;"/><path d="M558.308,545.554c-0,-0 -0,-0 -0,-0Z" style="fill:#bfbfbf;"/><path d="M558.222,545.618l-0.1,0.074l0.02,-0.028l0.084,-0.056l-0.004,0.01Z" style="fill:#bfbfbf;"/><path d="M558.237,545.578l-0.046,0.015l0.01,-0.013l0.039,-0.01l-0.003,0.008Z" style="fill:#bfbfbf;"/><path d="M558.248,545.546l-0.002,0.006l-0.026,-0l0.007,-0.009l0.021,0.003Z" style="fill:#bfbfbf;"/><path d="M558.257,545.522l-0.003,0.009l-0.015,-0.006l0.007,-0.01l0.011,0.007Z" style="fill:#bfbfbf;"/><path d="M558.308,545.554c-0,-0 -0,-0 -0,-0Z" style="fill:#bfbfbf;"/><path d="M558.308,545.554c-0,-0 -0,-0 -0,-0Z" style="fill:#bfbfbf;"/><path d="M558.308,545.554c-0,-0 -0,-0 -0,-0Z" style="fill:#bfbfbf;"/><path d="M558.226,545.608l0.011,-0.03l0.071,-0.024l-0.082,0.054Z" style="fill:#bfbfbf;"/><path d="M558.308,545.554c-0,-0 -0,-0 -0,-0c-0,-0 -0,-0 -0,-0Z" style="fill:#bfbfbf;"/><path d="M558.308,545.554l-0.068,0.016l0.006,-0.018l0.062,0.002Z" style="fill:#bfbfbf;"/><path d="M558.308,545.554c-0,-0 -0,-0 -0,-0c-0,-0 -0,-0 -0,-0Z" style="fill:#bfbfbf;"/><path d="M558.308,545.554c-0,-0 -0,-0 -0,-0Z" style="fill:#bfbfbf;"/><path d="M558.308,545.554c-0,-0 -0,-0 -0,-0Z" style="fill:#bfbfbf;"/><path d="M558.254,545.531l-0.006,0.015l-0.021,-0.003l0.012,-0.018l0.015,0.006Z" style="fill:#bfbfbf;"/><path d="M558.308,545.554c-0,-0 -0,-0 -0,-0Z" style="fill:#bfbfbf;"/><path d="M558.308,545.554c-0,-0 -0.051,-0.032 -0.051,-0.032l0.006,-0.017l0.045,0.049Z" style="fill:#bfbfbf;"/><path d="M558.257,545.499l-0.011,0.016l-0.052,-0.033l-0.015,-0.068l0.078,0.085Z" style="fill:#bfbfbf;"/><path d="M558.308,545.554c-0,-0 -0,-0 -0,-0Z" style="fill:#bfbfbf;"/><path d="M558.263,545.505l-0.006,0.017l-0.011,-0.007l0.011,-0.016l0.006,0.006Z" style="fill:#bfbfbf;"/><path d="M558.179,545.414l0.015,0.068l-0.011,-0.007l-0.067,-0.129l0.063,0.068Z" style="fill:#bfbfbf;"/></g></g><g><path d="M1059.81,838.006c-3.138,188.773 -421.025,144.92 -421.025,144.92l-0,197.503l-54.664,0c0,0 -2.392,-472.132 4.163,-483.286c7.5,-12.764 474.9,-62.101 471.526,140.863Zm-52.593,-0c-4.364,-137.756 -367.741,-101.848 -367.741,-101.848l-0.691,197.627c-0,-0 372.637,36.926 368.432,-95.779Z" style="fill:#589d2b;fill-rule:nonzero;"/><path d="M2301.79,750.882c-10.123,18.381 -0.07,426.497 -0.07,426.497l-54.847,0c-0,0 8.928,-393.551 -0.07,-426.497c-4.63,-16.953 -249.967,-2.967 -249.967,-2.967l-0,-51.391l554.921,0l-0,51.391c-0,0 -239.845,-15.413 -249.967,2.967Z" style="fill:#589d2b;fill-rule:nonzero;"/><path d="M1110.5,1177.38l0,-476.502l49.425,-0l-0,435.927c109.677,-13.446 229.525,-13.721 342.112,-0l-0,40.575l-391.537,0Z" style="fill:#589d2b;fill-rule:nonzero;"/><path d="M2038.52,1177.38l-65.545,-125.888c-108.861,-11.073 -186.324,-10.869 -293.191,0l-65.545,125.888l-62.698,0l249.349,-476.502l50.979,-0l249.349,476.502l-62.698,0Zm-211.967,-428.313l-131.689,256.663l259.994,0l-128.305,-256.663Z" style="fill:#589d2b;fill-rule:nonzero;"/></g></svg>