<?xml version="1.0" encoding="UTF-8" standalone="no"?><!DOCTYPE svg PUBLIC "-//W3C//DTD SVG 1.1//EN" "http://www.w3.org/Graphics/SVG/1.1/DTD/svg11.dtd"><svg width="100%" height="100%" viewBox="0 0 4431 4263" version="1.1" xmlns="http://www.w3.org/2000/svg" xmlns:xlink="http://www.w3.org/1999/xlink" xml:space="preserve" xmlns:serif="http://www.serif.com/" style="fill-rule:evenodd;clip-rule:evenodd;stroke-linejoin:round;stroke-miterlimit:2;"><g opacity="0.35"><g><path d="M2599.56,1799.47c-22.426,-29.386 -48.815,-56.347 -78.757,-80.529l-13.713,-9.975l1037.73,-1378.7l413.794,406.183l-1359.05,1063.03Z" style="fill:#589d2b;"/><path d="M2483.72,1691.97c-36.763,-24.552 -75.863,-43.573 -116.386,-56.729l550.129,-1635.24l520.736,255.039l-954.479,1436.93Z" style="fill:#589d2b;"/><path d="M1716.03,2156.49l-1716.03,179.566c53.156,-190.458 57.931,-383.689 15.444,-579.631l1704.31,270.737l-4.681,34.915c-0.591,15.885 -1.182,31.769 -1.773,47.654l2.731,46.759Z" style="fill:#589d2b;"/><path d="M1842.87,2438.34l-1257.64,1145.12c-51.724,-176.596 -177.882,-355.676 -328.81,-477.447l1511.68,-775.032c19.469,38.546 44.309,74.828 74.775,107.356Z" style="fill:#589d2b;"/><path d="M2327.28,2585.87c41.817,-9.996 82.422,-25.515 120.621,-46.507l830.39,1512.82l-540.366,210.272l-410.645,-1676.59Z" style="fill:#589d2b;"/><path d="M2674.88,1935.88c-14.31,-40.442 -34.073,-79.196 -59.374,-114.967l1414.29,-988.219l267.23,514.585l-1622.15,588.601Z" style="fill:#589d2b;"/><path d="M2704.84,2105.53c0.106,-43.296 -5.448,-86.49 -16.98,-128.263l1667.43,-444.492l74.945,574.972l-1725.4,-2.217Z" style="fill:#589d2b;"/><path d="M2685.93,2241.79c3.661,-15.619 7.321,-31.237 10.982,-46.855l4.619,-34.453l1714.69,193.553l-139.689,562.759l-1605.73,-630.581l15.131,-44.423Z" style="fill:#589d2b;"/><path d="M2553.64,2461.12c14.712,-13.684 28.441,-28.682 41.375,-44.697c14.637,-18.122 27.787,-36.966 38.972,-56.686l1479.91,887.603l-360.592,454.074l-1199.66,-1240.29Z" style="fill:#589d2b;"/><path d="M2209.53,2104.3l-0.111,0.33l-0.334,0.261c0,-0 0.445,-0.591 0.445,-0.591Z" style="fill:#589d2b;"/><path d="M2209.09,2104.89c0,-0 0,-0 0,-0Z" style="fill:#589d2b;"/><path d="M2209.09,2104.89c0,-0 0,-0 0,-0Z" style="fill:#589d2b;"/><path d="M2209.42,2104.63l0.391,-0.307l-0.075,0.113l-0.329,0.23l0.013,-0.036Z" style="fill:#589d2b;"/><path d="M2209.37,2104.79l0.179,-0.065l-0.035,0.054l-0.154,0.041l0.01,-0.03Z" style="fill:#589d2b;"/><path d="M2209.32,2104.92l0.009,-0.026l0.102,0l-0.024,0.036l-0.087,-0.01Z" style="fill:#589d2b;"/><path d="M2209.29,2105.02l0.012,-0.037l0.059,0.023l-0.027,0.041l-0.044,-0.027Z" style="fill:#589d2b;"/><path d="M2209.09,2104.89c0,-0 0,-0 0,-0Z" style="fill:#589d2b;"/><path d="M2209.09,2104.89c0,-0 0,-0 0,-0Z" style="fill:#589d2b;"/><path d="M2209.09,2104.89c0,-0 0,-0 0,-0Z" style="fill:#589d2b;"/><path d="M2209.41,2104.67l-0.041,0.123l-0.28,0.102l0.321,-0.225Z" style="fill:#589d2b;"/><path d="M2209.09,2104.89c0,-0 0,-0 0,-0c0,-0 0,-0 0,-0Z" style="fill:#589d2b;"/><path d="M2209.09,2104.89l0.27,-0.072l-0.024,0.072l-0.246,-0Z" style="fill:#589d2b;"/><path d="M2209.09,2104.89c0,-0 0,-0 0,-0c0,-0 0,-0 0,-0Z" style="fill:#589d2b;"/><path d="M2209.09,2104.89c0,-0 0,-0 0,-0Z" style="fill:#589d2b;"/><path d="M2209.09,2104.89c0,-0 0,-0 0,-0Z" style="fill:#589d2b;"/><path d="M2209.3,2104.98l0.02,-0.059l0.087,0.01l-0.048,0.072l-0.059,-0.023Z" style="fill:#589d2b;"/><path d="M2209.09,2104.89c0,-0 0,-0 0,-0Z" style="fill:#589d2b;"/><path d="M2209.09,2104.89c0,-0 0.205,0.122 0.205,0.122l-0.023,0.066l-0.182,-0.188Z" style="fill:#589d2b;"/><path d="M2209.29,2105.11l0.042,-0.064l0.212,0.127l0.065,0.268l-0.319,-0.331Z" style="fill:#589d2b;"/><path d="M2209.09,2104.89c0,-0 0,-0 0,-0Z" style="fill:#589d2b;"/><path d="M2209.27,2105.08l0.023,-0.066l0.044,0.027l-0.042,0.064l-0.025,-0.025Z" style="fill:#589d2b;"/><path d="M2209.61,2105.44l-0.065,-0.268l0.043,0.026l0.278,0.506l-0.256,-0.264Z" style="fill:#589d2b;"/></g></g></svg>