<?xml version="1.0" encoding="UTF-8" standalone="no"?><!DOCTYPE svg PUBLIC "-//W3C//DTD SVG 1.1//EN" "http://www.w3.org/Graphics/SVG/1.1/DTD/svg11.dtd"><svg width="100%" height="100%" viewBox="0 0 3290 3548" version="1.1" xmlns="http://www.w3.org/2000/svg" xmlns:xlink="http://www.w3.org/1999/xlink" xml:space="preserve" xmlns:serif="http://www.serif.com/" style="fill-rule:evenodd;clip-rule:evenodd;stroke-linejoin:round;stroke-miterlimit:2;"><g opacity="0.35"><g><path d="M1571.52,1390.64c-29.302,-5.498 -59.67,-7.403 -90.667,-5.726l-13.601,1.427l-122.639,-1386.35l467.233,19.948l-240.326,1370.7Z" style="fill:#b4953d;"/><path d="M1444.07,1388.78c-35.283,5.139 -68.98,14.853 -100.363,28.851l-553.292,-1276.79l449.701,-128.35l203.954,1376.28Z" style="fill:#b4953d;"/><path d="M1234.91,2081.6l-931.209,1034.11c-70.984,-142.813 -172.454,-261.166 -303.703,-355.626l1167.32,-757.983l16.047,23.447c8.222,9.836 16.445,19.673 24.667,29.509l26.882,26.541Z" style="fill:#b4953d;"/><path d="M1463.09,2181.98l-135.239,1365.13c-126.339,-77.881 -298.616,-117.061 -454.793,-108.531l487.267,-1280.55c32.477,12.583 66.949,20.91 102.765,23.95Z" style="fill:#b4953d;"/><path d="M1832.98,2008.83c19.658,-28.567 35.607,-59.789 47.16,-92.991l1314.34,458.063l-210.23,417.742l-1151.27,-782.814Z" style="fill:#b4953d;"/><path d="M1690.3,1431.71c-30.409,-16.505 -63.174,-29.055 -97.647,-36.826l313.814,-1355.7l437.948,164.03l-654.115,1228.5Z" style="fill:#b4953d;"/><path d="M1799.85,1517.18c-23.313,-25.999 -49.962,-48.88 -79.426,-67.682l759.054,-1166.61l355.345,304.031l-1034.97,930.256Z" style="fill:#b4953d;"/><path d="M1862.09,1609.03c-6.239,-11.335 -12.478,-22.669 -18.718,-34.004l-15.834,-23.136l1131.86,-809.831l220.152,412.599l-1302.54,489.157l-14.92,-34.785Z" style="fill:#b4953d;"/><path d="M1901.25,1811.87c1.426,-16.142 1.554,-32.54 0.657,-49.119c-1.015,-18.761 -3.31,-37.151 -7.256,-55.005l1365.93,-267.23l29.116,466.752l-1388.44,-95.398Z" style="fill:#b4953d;"/><path d="M1502.42,1783.87l0.112,0.258l-0.059,0.336c-0,0 -0.053,-0.594 -0.053,-0.594Z" style="fill:#b4953d;"/><path d="M1502.47,1784.47c-0,0 -0,0 -0,0Z" style="fill:#b4953d;"/><path d="M1502.47,1784.47c-0,0 -0,0 -0,0Z" style="fill:#b4953d;"/><path d="M1502.53,1784.13l0.069,-0.395l0.016,0.108l-0.073,0.315l-0.012,-0.028Z" style="fill:#b4953d;"/><path d="M1502.59,1784.26l0.072,-0.136l0.008,0.052l-0.07,0.107l-0.01,-0.023Z" style="fill:#b4953d;"/><path d="M1502.63,1784.36l-0.009,-0.02l0.062,-0.056l0.005,0.035l-0.058,0.041Z" style="fill:#b4953d;"/><path d="M1502.66,1784.43l-0.013,-0.029l0.048,-0.018l0.006,0.039l-0.041,0.008Z" style="fill:#b4953d;"/><path d="M1502.47,1784.47c-0,0 -0,0 -0,0Z" style="fill:#b4953d;"/><path d="M1502.47,1784.47c-0,0 -0,0 -0,0Z" style="fill:#b4953d;"/><path d="M1502.47,1784.47c-0,0 -0,0 -0,0Z" style="fill:#b4953d;"/><path d="M1502.54,1784.16l0.042,0.096l-0.113,0.212l0.071,-0.308Z" style="fill:#b4953d;"/><path d="M1502.47,1784.47c-0,0 -0,0 -0,0c-0,0 -0,0 -0,0Z" style="fill:#b4953d;"/><path d="M1502.47,1784.47l0.123,-0.189l0.024,0.057l-0.147,0.132Z" style="fill:#b4953d;"/><path d="M1502.47,1784.47c-0,0 -0,0 -0,0c-0,0 -0,0 -0,0Z" style="fill:#b4953d;"/><path d="M1502.47,1784.47c-0,0 -0,0 -0,0Z" style="fill:#b4953d;"/><path d="M1502.47,1784.47c-0,0 -0,0 -0,0Z" style="fill:#b4953d;"/><path d="M1502.65,1784.4l-0.02,-0.046l0.058,-0.041l0.01,0.069l-0.048,0.018Z" style="fill:#b4953d;"/><path d="M1502.47,1784.47c-0,0 -0,0 -0,0Z" style="fill:#b4953d;"/><path d="M1502.47,1784.47c-0,0 0.189,-0.037 0.189,-0.037l0.022,0.052l-0.211,-0.015Z" style="fill:#b4953d;"/><path d="M1502.71,1784.49l-0.009,-0.062l0.195,-0.038l0.184,0.125l-0.37,-0.025Z" style="fill:#b4953d;"/><path d="M1502.47,1784.47c-0,0 -0,0 -0,0Z" style="fill:#b4953d;"/><path d="M1502.68,1784.48l-0.022,-0.052l0.041,-0.008l0.009,0.062l-0.028,-0.002Z" style="fill:#b4953d;"/><path d="M1503.08,1784.51l-0.184,-0.125l0.04,-0.008l0.44,0.153l-0.296,-0.02Z" style="fill:#b4953d;"/></g></g></svg>